<svg xmlns="http://www.w3.org/2000/svg" width="28.992" height="1.52" viewBox="0 0 28.992 1.52">
  <g id="グループ_40777" data-name="グループ 40777" transform="translate(-133.504 -1456.2)">
    <path id="パス_45968" data-name="パス 45968" d="M1.52,13.72q0-.144,0-.456t0-.616q0-.3-.016-.448.4.016,1.2.024l1.864.016,2.256.016q1.192.008,2.384.008t2.248-.008q1.056-.008,1.856-.024T14.5,12.2v.352q0,.288-.008.648a4.424,4.424,0,0,0,.008.5q-.5-.016-1.472-.032t-2.232-.024q-1.256-.008-2.616-.008t-2.656.008q-1.3.008-2.344.024T1.52,13.72Zm16,0V12.648q0-.3-.016-.448.4.016,1.2.024l1.864.016,2.256.016q1.192.008,2.384.008t2.248-.008q1.056-.008,1.856-.024T30.5,12.2v.352q0,.288-.008.648a4.424,4.424,0,0,0,.008.5q-.5-.016-1.472-.032t-2.232-.024q-1.256-.008-2.616-.008t-2.656.008q-1.3.008-2.344.024T17.52,13.72Z" transform="translate(132 1444)"/>
  </g>
</svg>
