<?xml version="1.0" encoding="utf-8"?>
<!-- Generator: Adobe Illustrator 28.3.0, SVG Export Plug-In . SVG Version: 6.00 Build 0)  -->
<svg version="1.1" id="レイヤー_1" xmlns="http://www.w3.org/2000/svg" xmlns:xlink="http://www.w3.org/1999/xlink" x="0px"
	 y="0px" viewBox="0 0 104.7 16.96" style="enable-background:new 0 0 104.7 16.96;" xml:space="preserve">
<style type="text/css">
	.st0{fill:#A29369;}
	.st1{fill:#9F2024;}
</style>
<path class="st0" d="M12.16,9.72c-0.3-0.48-0.71-0.88-1.2-1.16c-0.54-0.29-1.11-0.53-1.69-0.72c-0.06,0-0.1-0.05-0.1-0.11
	c0-0.06,0.04-0.11,0.1-0.13c0.31-0.12,0.61-0.27,0.9-0.44c0.26-0.17,0.49-0.37,0.71-0.59c0.25-0.27,0.44-0.59,0.56-0.94
	c0.17-0.44,0.26-0.9,0.25-1.37c0.09-1.09-0.42-2.15-1.34-2.75C9.04,0.87,7.58,0.58,6.12,0.68c-0.27,0-0.82,0.02-1.63,0.07
	C4.04,0.79,3.7,0.8,3.46,0.8H2.41C2.17,0.79,1.69,0.78,0.97,0.78c-0.47,0-0.7,0.09-0.7,0.26c0.01,0.13,0.09,0.25,0.2,0.31
	c0.18,0.11,0.38,0.17,0.59,0.17c0.46,0,0.9,0.17,1.24,0.48c0.28,0.36,0.41,0.82,0.37,1.27v10.8c0.03,0.46-0.13,0.9-0.46,1.22
	c-0.41,0.32-0.9,0.52-1.42,0.58c-0.21,0.03-0.41,0.09-0.6,0.17c-0.11,0.04-0.19,0.14-0.2,0.26c0,0.18,0.23,0.26,0.7,0.26
	c0.55,0,1.11-0.02,1.66-0.07c0.58-0.03,1.06-0.05,1.46-0.05c0.52,0,1.04,0.02,1.56,0.07l0.72,0.03c1.41,0.04,2.8-0.24,4.08-0.83
	c0.43-0.22,0.83-0.47,1.21-0.76c0.39-0.32,0.69-0.72,0.9-1.18c0.28-0.63,0.41-1.31,0.38-2C12.71,11.07,12.53,10.35,12.16,9.72z
	 M4.54,2.49C4.51,2.18,4.63,1.87,4.86,1.66c0.39-0.21,0.82-0.3,1.26-0.25c1.01-0.12,2.02,0.23,2.75,0.94
	c0.51,0.63,0.77,1.42,0.76,2.23c0.02,0.52-0.1,1.03-0.35,1.49C9.11,6.39,8.86,6.66,8.55,6.86c-0.89,0.48-1.89,0.72-2.9,0.7
	c-0.74,0-1.11-0.3-1.11-0.89V2.49z M9.87,13.77C9.5,14.33,9,14.78,8.4,15.09c-0.61,0.32-1.28,0.48-1.97,0.48
	C5.93,15.61,5.42,15.48,5,15.2c-0.34-0.35-0.51-0.84-0.45-1.33V9.09C4.56,8.85,4.68,8.63,4.88,8.5c0.3-0.21,0.67-0.3,1.03-0.28
	C6.86,8.19,7.8,8.4,8.65,8.82C9.14,9.1,9.56,9.49,9.88,9.95c0.38,0.58,0.57,1.27,0.54,1.97C10.42,12.58,10.23,13.22,9.87,13.77z"/>
<path class="st1" d="M34.11,15.86c-0.53,0.01-1.06-0.04-1.58-0.14c-0.44-0.12-0.84-0.34-1.18-0.65c-0.89-0.79-1.71-1.65-2.44-2.59
	c-0.62-0.81-1.43-1.98-2.44-3.5c-0.04-0.06-0.06-0.12-0.07-0.19c-0.01-0.05,0.02-0.1,0.07-0.12c1.89-0.96,2.83-2.3,2.83-4.03
	c0.07-1.15-0.45-2.26-1.38-2.94c-1.2-0.74-2.61-1.09-4.02-1c-0.25,0-0.81,0.02-1.68,0.07c-0.48,0.03-0.84,0.05-1.08,0.05h-1
	c-0.21-0.02-0.66-0.02-1.34-0.02c-0.47,0-0.7,0.09-0.7,0.26c0.01,0.13,0.09,0.25,0.2,0.31c0.18,0.11,0.38,0.17,0.59,0.17
	c0.35,0.01,0.69,0.1,1,0.26c0.21,0.14,0.35,0.36,0.38,0.61c0.07,0.47,0.1,0.95,0.08,1.43v10.22c0.04,0.46-0.11,0.91-0.41,1.26
	c-0.39,0.32-0.86,0.51-1.35,0.56c-0.21,0.03-0.41,0.09-0.6,0.17c-0.11,0.04-0.19,0.15-0.19,0.26c0,0.18,0.23,0.26,0.7,0.26
	c0.43,0,0.97-0.03,1.61-0.1c0.13,0,0.34-0.01,0.64-0.04c0.3-0.02,0.59-0.04,0.88-0.04c0.32,0,0.64,0.02,0.96,0.07
	c0.46,0.07,0.93,0.1,1.39,0.1c0.47,0,0.7-0.09,0.7-0.26c0-0.12-0.08-0.22-0.19-0.26c-0.19-0.08-0.39-0.14-0.6-0.17
	c-0.01,0-0.01,0-0.02,0c-1.01-0.13-1.72-1.05-1.59-2.06V9.6c0-0.32,0.1-0.48,0.31-0.48h0.04c0.66,0.06,1.3,0.23,1.9,0.5
	c0.43,0.21,0.79,0.53,1.03,0.94c0.74,1.2,1.35,2.12,1.83,2.77c0.48,0.65,1.09,1.43,1.82,2.34c0.37,0.46,0.85,0.8,1.4,1.01
	c0.62,0.2,1.26,0.3,1.91,0.28c0.44,0,0.88-0.06,1.31-0.19c0.42-0.13,0.64-0.34,0.64-0.65C34.47,15.94,34.35,15.86,34.11,15.86z
	 M25.43,8.06c-0.57,0.33-1.22,0.5-1.88,0.49c-0.34,0.02-0.67-0.02-0.99-0.14c-0.19-0.1-0.29-0.33-0.29-0.7
	c0-1.63,0.02-2.99,0.05-4.08c-0.02-0.6,0.08-1.2,0.3-1.76c0.21-0.34,0.6-0.52,1-0.47c1.03-0.13,2.07,0.22,2.81,0.95
	C26.95,3.13,27.2,4.07,27.15,5c0,0.61-0.15,1.22-0.44,1.75C26.41,7.3,25.97,7.75,25.43,8.06z"/>
<path class="st0" d="M39.1,16.58c-0.47,0-0.7-0.09-0.7-0.26c0-0.12,0.08-0.22,0.19-0.26c0.19-0.08,0.39-0.14,0.6-0.17
	c0.51-0.06,1-0.25,1.42-0.56c0.33-0.32,0.49-0.76,0.46-1.21V3.26c0.04-0.43-0.08-0.86-0.35-1.2c-0.36-0.3-0.8-0.48-1.26-0.53
	c-0.53-0.1-0.79-0.26-0.79-0.48c0-0.18,0.23-0.26,0.7-0.26c0.45,0,0.96,0.02,1.54,0.05l1.27,0.02l1.15-0.02
	c0.51-0.03,1-0.05,1.46-0.05c0.46,0,0.7,0.09,0.7,0.26c0,0.22-0.26,0.38-0.79,0.48c-0.48,0.05-0.94,0.24-1.32,0.54
	c-0.29,0.33-0.43,0.76-0.39,1.19V14.1c-0.04,0.45,0.14,0.9,0.47,1.21c0.42,0.31,0.91,0.5,1.43,0.56c0.21,0.03,0.41,0.09,0.6,0.17
	c0.11,0.04,0.19,0.15,0.19,0.26c0,0.18-0.23,0.26-0.7,0.26c-0.51,0-1.02-0.02-1.53-0.07c-0.51-0.03-0.94-0.05-1.28-0.05
	c-0.4,0-0.89,0.02-1.46,0.05C40.23,16.55,39.69,16.58,39.1,16.58z"/>
<path class="st0" d="M66.02,4.35c-0.69-1.19-1.73-2.14-2.99-2.71c-1.62-0.72-3.39-1.06-5.16-1c-0.19,0-0.43,0.01-0.71,0.02
	c-0.28,0.02-0.59,0.03-0.92,0.05c-0.99,0.08-1.82,0.12-2.47,0.12c-0.63,0-1.06-0.01-1.3-0.02L51.1,0.78c-0.47,0-0.7,0.1-0.7,0.31
	c-0.01,0.12,0.06,0.23,0.17,0.28c0.2,0.08,0.41,0.13,0.62,0.16c0.47,0.05,0.91,0.24,1.26,0.54c0.26,0.35,0.39,0.78,0.35,1.21v10.8
	c0.04,0.44-0.08,0.89-0.35,1.25c-0.35,0.31-0.79,0.51-1.26,0.55c-0.22,0.04-0.43,0.09-0.65,0.14c-0.1,0.03-0.16,0.13-0.15,0.24
	c0,0.21,0.23,0.31,0.7,0.31c0.48,0.01,0.96-0.02,1.44-0.07c0.45-0.03,0.81-0.05,1.08-0.05c0.83,0,2.13,0.04,3.89,0.12l1.1,0.05
	c1.47,0.01,2.91-0.38,4.18-1.13c1.27-0.74,2.32-1.79,3.05-3.06c0.75-1.27,1.14-2.71,1.14-4.18C67,6.89,66.67,5.55,66.02,4.35z
	 M63.88,12.34c-0.5,1.04-1.28,1.92-2.26,2.53c-0.99,0.61-2.14,0.93-3.3,0.91c-0.9,0.04-1.8-0.11-2.63-0.45
	c-0.66-0.33-1.05-1.04-0.97-1.78V2.85c-0.03-0.37,0.1-0.74,0.36-1.01c0.29-0.23,0.64-0.36,1-0.38c0.63-0.06,1.27-0.08,1.91-0.08
	c1.13,0,2.25,0.31,3.23,0.88c1.05,0.6,1.91,1.48,2.5,2.54c0.66,1.18,0.99,2.51,0.96,3.86C64.7,9.93,64.43,11.19,63.88,12.34z"/>
<path class="st0" d="M87.21,16.01c-0.18-0.12-0.38-0.2-0.59-0.23c-0.52-0.07-1.01-0.28-1.42-0.61c-0.48-0.5-0.83-1.12-1.01-1.79
	c-1.66-4.82-3.09-9.09-4.27-12.82c-0.03-0.09-0.06-0.17-0.08-0.26s-0.05-0.18-0.08-0.26C79.74,0.02,79.72,0.01,79.7,0
	C79.68,0,79.66,0,79.64,0.02c-0.03,0.06-0.08,0.19-0.16,0.38c-0.06,0.17-0.16,0.32-0.3,0.43c-0.16,0.11-0.33,0.2-0.52,0.25
	c-0.18,0.06-0.3,0.09-0.35,0.11c-0.06,0.48-0.17,0.94-0.34,1.39c-0.88,2.38-1.64,4.37-2.27,5.96c-0.63,1.59-1.37,3.36-2.22,5.32
	c-0.18,0.48-0.48,0.9-0.86,1.24c-0.36,0.28-0.77,0.48-1.2,0.61c-0.53,0.16-0.79,0.34-0.79,0.55c0,0.1,0.06,0.17,0.19,0.23
	c0.16,0.06,0.33,0.09,0.5,0.08c0.42,0,0.83-0.03,1.25-0.07c0.16,0,0.4-0.01,0.73-0.04s0.63-0.04,0.9-0.04l1.47,0.02
	c0.19,0.02,0.43,0.02,0.72,0.02c0.47,0,0.7-0.09,0.7-0.26c0-0.12-0.07-0.22-0.18-0.26c-0.2-0.09-0.4-0.16-0.61-0.22
	c-0.37-0.08-0.71-0.25-1-0.5c-0.25-0.21-0.4-0.53-0.4-0.86c0.08-0.49,0.2-0.98,0.36-1.45c0.24-0.82,0.45-1.49,0.62-2
	c0.1-0.29,0.23-0.43,0.41-0.43h4.53c0.16-0.01,0.32,0.01,0.47,0.05c0.09,0.04,0.16,0.12,0.18,0.22c0.44,1.26,0.75,2.56,0.94,3.89
	c0,0.56-0.49,0.92-1.46,1.08c-0.2,0.02-0.39,0.08-0.56,0.18c-0.15,0.09-0.23,0.18-0.23,0.28c0,0.19,0.23,0.29,0.7,0.29l2.51-0.03
	c0.46,0,1.14,0.03,2.04,0.1l1.3,0.05c0.47,0,0.7-0.08,0.7-0.24C87.4,16.2,87.32,16.08,87.21,16.01z M80.91,9.66
	c-0.08,0.02-0.16,0.03-0.24,0.02h-3.72c-0.13,0-0.27,0-0.4-0.02c-0.07-0.02-0.11-0.08-0.1-0.15l0.05-0.19l2.18-5.88
	c0.1-0.27,0.16-0.41,0.19-0.41c0.05,0,0.12,0.14,0.22,0.43l1.87,5.86l0.05,0.24C81.01,9.62,80.97,9.65,80.91,9.66z"/>
<path class="st0" d="M92.21,16.58c-0.17,0.01-0.34-0.02-0.49-0.08c-0.12-0.06-0.18-0.12-0.18-0.2c0-0.19,0.18-0.33,0.53-0.41
	c0.53-0.07,1.03-0.27,1.46-0.58c0.33-0.29,0.51-0.71,0.48-1.15V3.02c0.01-0.29-0.03-0.58-0.12-0.85c-0.07-0.18-0.22-0.33-0.4-0.4
	c-0.31-0.11-0.62-0.19-0.95-0.24c-0.53-0.1-0.79-0.26-0.79-0.48c0-0.18,0.23-0.26,0.7-0.26c0.48,0,0.98,0.02,1.49,0.05l1.2,0.02
	l1.44-0.02c0.61-0.03,1.14-0.05,1.58-0.05c0.47,0,0.7,0.09,0.7,0.26c0,0.22-0.26,0.38-0.79,0.48c-0.56,0.09-1.11,0.24-1.63,0.46
	c-0.33,0.15-0.53,0.5-0.5,0.86v11.31c-0.04,0.41,0.09,0.82,0.36,1.13c0.44,0.28,0.97,0.4,1.49,0.34h2.98c0.38,0,0.75-0.06,1.1-0.19
	c0.28-0.1,0.54-0.24,0.77-0.43c0.26-0.21,0.5-0.46,0.71-0.73c0.2-0.31,0.39-0.63,0.54-0.97c0.07-0.17,0.15-0.33,0.24-0.48
	c0.1-0.16,0.19-0.24,0.29-0.24c0.09,0,0.18,0.05,0.22,0.13c0.05,0.09,0.07,0.2,0.07,0.3l-0.02,0.12c-0.21,0.77-0.36,1.36-0.44,1.76
	c-0.09,0.42-0.16,0.85-0.2,1.28c-0.03,0.27-0.14,0.41-0.34,0.41c-1.71,0-3.29-0.02-4.73-0.07c-1.64-0.03-2.81-0.05-3.52-0.05
	c-0.49,0-1.1,0.02-1.82,0.05C92.91,16.54,92.44,16.56,92.21,16.58z"/>
</svg>
