<svg xmlns="http://www.w3.org/2000/svg" width="27.998" height="6.412" viewBox="0 0 27.998 6.412">
  <g id="グループ_40778" data-name="グループ 40778" transform="translate(-0.036 -2.698)">
    <g id="グループ_40777" data-name="グループ 40777">
      <path id="パス_45968" data-name="パス 45968" d="M-8.194,0V-3.454q0-.488.031-1.072l.013-.29H-8.2q-.141.743-.215,1.028L-9.345,0H-11.13L-12.1-3.744q-.04-.141-.207-1.072h-.053q.062,1.477.062,1.846V0h-1.666V-6.3h2.843l.866,3.423a4.225,4.225,0,0,1,.081.428q.051.323.064.5h.026q.048-.4.154-.945L-9.121-6.3h2.8V0Zm3.561,0V-6.3H-.708v1.485H-2.734V-3.9h1.9v1.485h-1.9v.927H-.563V0ZM5.186,0,2.963-3.041a7.248,7.248,0,0,1-.431-.65H2.515q.026.466.026,1.046V0H.783V-6.3H2.576L4.707-3.41l.1.136q.057.079.114.163t.108.163a1,1,0,0,1,.077.141h.018a5.711,5.711,0,0,1-.026-.668V-6.3H6.852V0Zm8.848-2.878a3.189,3.189,0,0,1-.692,2.252A2.8,2.8,0,0,1,11.209.11,2.678,2.678,0,0,1,9.167-.626a3.12,3.12,0,0,1-.7-2.217V-6.3h1.907v3.529a1.632,1.632,0,0,0,.226.934.74.74,0,0,0,.648.327.749.749,0,0,0,.648-.308,1.549,1.549,0,0,0,.222-.91V-6.3h1.912Z" transform="translate(14 9)" fill="#fff"/>
    </g>
  </g>
</svg>
